<svg width="720" height="500" xmlns="http://www.w3.org/2000/svg">

 <g>
  <title>background</title>
  <rect fill="none" id="canvas_background" height="402" width="582" y="-1" x="-1"/>
 </g>
 <g>
  <title>Layer 1</title>
  <g stroke="null" id="svgg">
   <path stroke="null" fill-rule="evenodd" fill="#ffffff" d="m193.249866,45.16553c-16.792226,2.606848 -28.518962,19.149334 -25.738506,36.310181c4.20389,25.942282 36.639542,35.259149 54.320293,15.603228c19.619351,-21.812069 0.55645,-56.438436 -28.581787,-51.913409m-51.403418,78.360475c-4.89317,1.782969 -9.964046,6.270136 -12.313701,10.897922c-2.292215,4.510604 -2.019375,1.240326 -7.343345,88.421898l-2.568645,42.064717l4.93625,32.268305l4.93625,32.268305l-12.390886,45.165531c-13.186071,48.06263 -13.597126,50.355791 -10.116621,56.526773c6.68099,11.846194 22.669056,12.560103 30.913492,1.379141c2.608135,-3.537092 27.763267,-95.968416 27.761472,-102.009597c0,-2.480652 -1.836285,-16.677697 -4.07824,-31.548988c-2.241955,-14.871292 -4.17517,-27.939784 -4.29723,-29.041294c-0.26925,-2.450004 4.808805,-3.336982 7.422325,-1.296213c1.602935,1.252946 22.773166,58.587372 22.773166,61.675568c0,0.840104 -4.03875,20.890839 -8.975001,44.559791c-10.848981,52.014366 -10.944116,53.770293 -3.329725,61.004926c7.738245,7.353618 20.987141,5.837464 26.759862,-3.061153c2.575825,-3.971567 22.437501,-95.440196 22.645721,-104.291941c0.080775,-3.40008 -2.288625,-11.018709 -9.653511,-31.04781l-9.757621,-26.540812l1.595755,-20.4798c0.877755,-11.262087 1.49703,-20.571743 1.376765,-20.687122c-0.120265,-0.115379 -5.46398,-1.099708 -11.875721,-2.186796c-13.920226,-2.361667 -17.817171,-4.42407 -21.259981,-11.245862c-2.417865,-4.791841 -18.511836,-41.475201 -20.495311,-46.717742l-1.0411,-2.749269l2.155795,1.956037c1.1847,1.074468 8.675235,10.292181 16.643241,20.483406c15.912676,20.351802 17.102761,21.583113 22.191586,22.97848c5.788875,1.588266 69.818324,11.074596 74.720469,11.070991c16.332706,-0.014422 21.028426,-22.875721 5.831955,-28.403103c-2.346065,-0.854527 -18.176171,-3.621824 -35.178412,-6.149348c-17.004036,-2.529327 -31.588412,-4.822488 -32.410522,-5.096514c-1.272655,-0.423658 -8.312645,-8.972532 -24.828441,-30.153621c-5.72964,-7.34821 -2.712245,-6.055603 11.807511,5.055049c16.993266,13.005394 18.441831,13.342518 19.360871,4.510604c2.39812,-23.041578 -2.586595,-34.04226 -16.689911,-36.829387c-14.474881,-2.862845 -50.057168,-4.633194 -55.228563,-2.751072m167.658395,23.791543c-12.606286,3.670499 -22.857531,19.282742 -20.777126,31.646339c1.283425,7.61863 1.534725,7.88905 3.42486,3.648866c2.03194,-4.555674 3.634875,-5.723888 14.727976,-10.737473c13.790986,-6.232277 17.951796,-4.034665 26.616262,14.060032c6.33994,13.245167 6.453025,13.275814 11.516721,3.100815c11.730326,-23.578812 -10.021486,-49.137098 -35.508692,-41.718579m-0.71082,37.083582c-5.918115,3.066562 -6.09223,3.405488 -4.169785,8.085555c0.525935,1.28179 -0.25848,2.177782 -3.24895,3.710161l-3.943615,2.020938l1.04469,4.802657c0.5744,2.641101 1.147005,4.946881 1.27086,5.121753c0.123855,0.176674 2.0463,-0.611149 4.2721,-1.752321c4.697515,-2.406737 7.117175,-2.642904 7.117175,-0.692275c0,3.515459 2.62788,3.706555 9.344771,0.679655c7.87646,-3.547909 7.813635,-3.052139 1.95296,-15.331005c-5.27012,-11.03854 -5.21627,-11.011498 -13.640206,-6.645118m70.272459,-1.974065c-7.181795,1.310635 -8.125965,2.212035 -25.548236,24.384664c-15.027741,19.125898 -16.370401,27.815391 -5.824775,37.727181c2.31196,2.175979 56.556863,38.498779 83.24672,55.746161c14.347436,9.269994 18.282076,7.537504 85.28584,-37.586563l8.13853,-5.48051l13.799961,2.166965c64.438709,10.126324 64.266389,10.110099 69.224179,6.755089c11.468256,-7.762854 10.145341,-23.935767 -2.34786,-28.689748c-5.968375,-2.271527 -81.83226,-13.420038 -86.85108,-12.763819c-2.78943,0.365968 -9.030646,3.966159 -22.516481,12.992775c-17.993081,12.042699 -18.743391,12.433907 -21.087661,11.00609c-2.3335,-1.422409 -3.06945,-1.074468 -18.344901,8.646226c-26.266237,16.715555 -25.555416,16.803892 -54.661343,-6.859651c-21.168436,-17.213128 -24.401231,-20.021889 -23.103446,-20.07417c0.565425,-0.021634 11.335426,4.521421 23.934531,10.097479c33.225452,14.705434 27.145787,15.233654 59.270903,-5.148795c29.138237,-18.487707 31.942027,-21.43889 28.965917,-30.492548c-4.176965,-12.713341 -11.753661,-11.92732 -36.732882,3.818329c-10.791541,6.800159 -20.572496,12.868382 -21.733861,13.484939c-1.78782,0.94647 -5.153445,-0.1929 -21.938491,-7.427533c-27.233742,-11.736224 -27.310927,-12.069741 -1.87757,-7.995415c8.22828,1.317846 15.076206,2.28595 15.218011,2.15074c0.141805,-0.13521 -4.12132,-3.60019 -9.474011,-7.701559c-5.35269,-4.099566 -12.477046,-9.605315 -15.833696,-12.233796c-7.260775,-5.689635 -13.033496,-7.649278 -19.208296,-6.522528m-87.509845,51.853917c-4.72803,2.897099 -6.348915,5.878929 -6.348915,11.689351c0,7.559138 1.351635,8.788647 31.392757,28.567158c14.819521,9.758553 35.470997,23.357068 45.892768,30.218522c89.922325,59.209338 82.93439,55.573092 93.65772,48.742285c6.75638,-4.303282 6.894595,-4.184297 14.966711,13.070295c3.993875,8.538058 10.466646,22.221304 14.379746,30.406013c3.914895,8.182906 6.87126,15.28233 6.567905,15.774494c-0.30156,0.490361 -11.308501,0.892386 -24.456876,0.892386c-26.693447,0 -29.330302,0.499375 -32.791062,6.199827c-4.07824,6.719033 -1.49703,15.95838 5.376025,19.234066c5.14088,2.450004 169.53776,2.450004 174.680435,0c6.87126,-3.275686 9.454266,-12.515033 5.376025,-19.234066c-3.401525,-5.601297 -6.316605,-6.199827 -30.242162,-6.199827l-21.358706,0l-5.200115,-11.766871c-14.711821,-33.281478 -38.906627,-89.831687 -38.906627,-90.931395c0,-0.690472 3.329725,-3.340587 7.39899,-5.887943l7.400785,-4.631391l24.760231,9.132981c46.865658,17.287043 48.005483,17.582702 53.875133,13.989723c8.55497,-5.238935 9.034236,-17.25279 0.90109,-22.605301c-1.301375,-0.85633 -11.055406,-4.723334 -21.676421,-8.592142c-10.619221,-3.87061 -27.820707,-10.209253 -38.224527,-14.087074c-23.374491,-8.712929 -23.340386,-8.714732 -37.079317,0.429066c-17.820761,11.858814 -74.354289,47.815646 -75.178194,47.815646c-0.852625,0 -26.470867,-16.713753 -99.550706,-64.945846c-48.418333,-31.954618 -48.172418,-31.835633 -55.612693,-27.279959" id="svg_1"/>
   <path stroke="null" fill-rule="evenodd" fill="#4486d0" d="m195.208211,43.791797c1.78423,0.221744 4.701105,0.221744 6.48354,0c1.782435,-0.221744 0.3231,-0.403827 -3.24177,-0.403827c-3.56487,0 -5.024205,0.182083 -3.24177,0.403827m-74.790474,398.600733c1.233165,0.23797 3.25254,0.23797 4.4875,0c1.233165,-0.23797 0.224375,-0.434475 -2.24375,-0.434475c-2.468125,0 -3.47871,0.196505 -2.24375,0.434475m64.334599,0.01262c1.51498,0.228956 3.75873,0.223547 4.98651,-0.014422c1.225985,-0.23797 -0.01436,-0.425461 -2.75712,-0.418249c-2.74276,0.007211 -3.746165,0.201914 -2.22939,0.432672m300.149147,0.03245c23.448086,0.149632 61.816214,0.149632 85.262505,0c23.448086,-0.151435 4.263125,-0.272223 -42.631252,-0.272223c-46.894378,0 -66.077544,0.120788 -42.631252,0.272223" id="svg_2"/>
   <path stroke="null" fill-rule="evenodd" fill="#4892e4" d="m0.999969,250.388994l0,250.388995l359.000021,0l359.000021,0l0,-250.388995l0,-250.388995l-359.000021,0l-359.000021,0l0,250.388995m203.942527,-206.30334c0.34464,0.558868 1.042895,0.757176 1.55447,0.439883c0.50978,-0.31549 1.48985,-0.218139 2.173745,0.219942c1.204445,0.767993 1.707045,0.932047 3.65103,1.200664c5.735025,0.791429 16.131666,14.130341 18.034366,23.138929c8.1852,38.734946 -44.937828,56.35731 -61.956224,20.553715c-10.043026,-21.127005 6.20352,-46.099381 30.240367,-46.481575c3.121505,-0.050478 5.957605,0.367771 6.302245,0.928442m-32.243587,78.104478c39.267422,3.243236 44.973728,8.020654 43.060257,36.055986l-0.85442,12.518638l-3.24895,0.31549c-2.78943,0.268617 -5.02241,-1.052835 -15.830106,-9.370951c-6.919725,-5.327272 -12.326266,-9.269994 -12.015731,-8.763407c0.31233,0.506587 5.767335,7.423928 12.121636,15.370667l11.554416,14.449437l31.631492,4.615166c38.693022,5.646367 37.510117,5.379553 41.451937,9.3385c10.403821,10.449025 3.451785,27.6279 -11.181056,27.6279c-5.185755,0 -72.453384,-9.754947 -76.423924,-11.081807c-4.385185,-1.467479 -5.8876,-2.998055 -18.596201,-18.963646c-6.35789,-7.988204 -12.518331,-15.650101 -13.688671,-17.02744l-2.12887,-2.504088l0.89032,2.504088c2.52377,7.099424 18.375416,41.751029 19.847316,43.382563c3.01201,3.344193 6.88921,4.676461 18.382596,6.32422c13.957921,1.999304 12.744501,-0.580501 10.777181,22.906368l-1.678325,20.030903l9.800701,27.22227c5.52142,15.332808 9.802496,28.785297 9.802496,30.800826c0,7.396886 -20.016046,99.979645 -22.588281,104.48484c-4.30082,7.532096 -18.011031,13.155027 -22.087476,9.059067c-0.658765,-0.661627 -1.197265,-0.865344 -1.197265,-0.452503c0,2.184993 -9.028851,-5.837464 -10.870521,-9.659399c-3.39255,-7.036326 -2.56326,-12.231993 13.929201,-87.340219l3.078425,-14.02037l-9.439906,-25.540258c-5.19114,-14.047412 -10.267401,-27.905531 -11.279781,-30.797221c-2.17913,-6.225066 -8.158275,-8.379411 -6.948445,-2.504088c1.427025,6.924552 8.567535,56.607899 8.567535,59.605954c0,3.007069 -10.477416,42.756991 -17.485096,66.339409c-1.473695,4.957698 -3.983105,13.971695 -5.57886,20.030903c-4.11773,15.648298 -6.223265,19.374684 -12.891691,22.816228c-16.373991,8.453326 -32.062292,-6.598246 -26.783197,-25.695299c0.590555,-2.134514 1.23496,-4.613363 1.43241,-5.509355c0.19745,-0.894188 5.11575,-19.138518 10.929756,-40.543154l10.568961,-38.915226l-4.894965,-32.695568l-4.894965,-32.695568l3.81976,-62.046944c2.281445,-37.081779 4.30441,-63.274651 5.027795,-65.100886c3.00124,-7.578968 9.093471,-13.138801 16.637856,-15.177767c2.56685,-0.694078 4.74598,-1.292607 4.84291,-1.330466c0.098725,-0.036056 11.093101,0.834696 24.431746,1.936206m159.902199,25.596145c18.434651,9.367345 23.103446,33.838543 9.289126,48.690004l-2.9079,3.127857l-5.24858,-10.914147c-7.250005,-15.078614 -7.332575,-15.210218 -10.660506,-16.939102c-1.62986,-0.845513 -2.96175,-1.278185 -2.96175,-0.960892c0,0.31549 -0.73954,0.160449 -1.64422,-0.34794c-5.106775,-2.870057 -26.278802,9.151009 -26.278802,14.92177c0,7.892655 -4.123115,-0.018028 -4.47673,-8.588536c-0.97648,-23.710417 23.796316,-39.708458 44.889363,-28.989013m-8.763191,43.231128c5.824775,12.46816 5.824775,12.473569 -1.829105,16.353193c-7.26975,3.686725 -10.172266,3.79309 -11.698016,0.429066l-1.147005,-2.525722l-5.1337,2.612256c-5.487315,2.792536 -6.80664,2.368878 -6.83895,-2.192204c-0.008975,-1.170017 -0.292585,-3.519064 -0.63184,-5.217301c-0.56004,-2.812367 -0.28361,-3.250447 3.053295,-4.847727c2.94021,-1.407986 3.54333,-2.159754 3.04432,-3.794893c-1.358815,-4.447506 -0.960325,-5.06226 5.39218,-8.298285c9.863526,-5.028007 9.965841,-4.979332 15.788821,7.481617m67.357379,-8.35958c3.853865,1.653167 33.794467,24.676717 34.377842,26.434446c0.55645,1.678406 -1.990655,1.563027 -16.659396,-0.748162c-6.829975,-1.076271 -12.520126,-1.851475 -12.647571,-1.725279c-0.19027,0.191097 8.409575,4.121199 31.495072,14.39355c2.43761,1.085285 3.58282,0.544445 15.551881,-7.326576c22.315441,-14.674786 29.294402,-18.622917 33.724462,-19.073617c12.433966,-1.265565 20.588651,13.890569 12.351396,22.951438c-2.995855,3.29732 -32.611562,23.225464 -47.601608,32.030336c-10.003536,5.877126 -7.76517,6.464838 -54.862383,-14.373719c-5.368845,-2.374287 -6.05992,-3.035914 12.302931,11.75966c24.647146,19.857835 25.217956,20.256253 30.100357,20.991795c5.530395,0.832893 8.140325,-0.185688 19.378821,-7.568152c22.157481,-14.553999 23.859141,-15.440976 25.961086,-13.530009c1.84526,1.676603 2.604545,1.292607 20.473771,-10.358885c10.206371,-6.654132 20.059126,-12.383429 21.895411,-12.727763c4.162605,-0.784218 86.680555,11.21882 90.403385,13.149618c10.892061,5.649973 12.301136,20.959345 2.651215,28.770874c-5.548345,4.492576 -9.206556,4.373591 -49.432508,-1.59728l-36.181817,-5.370539l-25.646961,16.998595c-53.765638,35.637737 -53.218163,35.437626 -69.078784,25.414062c-19.016231,-12.019263 -78.50433,-51.796227 -82.128435,-54.916873c-12.270621,-10.56801 -10.766411,-20.077776 6.758175,-42.720936c17.284056,-22.336684 24.214551,-26.261378 36.813657,-20.856585m-86.752355,49.622051c2.112715,0.807654 34.359892,21.958096 116.886817,76.667647c12.613466,8.363186 23.383466,15.464413 23.932736,15.783508c0.54927,0.317293 4.13927,-1.382747 7.97698,-3.778667c3.839505,-2.397723 9.448881,-5.891548 12.466276,-7.764657c3.0156,-1.873108 13.785601,-8.721943 23.932736,-15.221035c52.099878,-33.36621 41.030112,-31.201048 82.76925,-16.185532c54.293368,19.531528 51.906018,18.233512 52.656328,28.644678c1.208035,16.769639 -8.847556,19.751469 -34.420922,10.205647c-8.657285,-3.230616 -23.701181,-8.694901 -33.428287,-12.141853l-17.686136,-6.26653l-6.995115,4.24379c-8.607025,5.22271 -8.991156,1.99029 3.39614,28.552736c2.31196,4.957698 10.680251,24.188158 18.596201,42.731752l14.392311,33.717756l21.938491,0.335321c20.755586,0.317293 22.134146,0.457911 25.573366,2.605045c9.752236,6.089856 8.863711,21.702098 -1.51498,26.64898c-6.025815,2.871859 -172.827995,1.984882 -176.809305,-0.939258c-8.791911,-6.457627 -8.37188,-20.577151 0.77185,-25.976535c3.09458,-1.826236 5.51783,-2.029952 27.576587,-2.3184c13.299156,-0.173069 24.182241,-0.445291 24.182241,-0.607543c0,-0.88878 -27.497607,-58.423318 -28.423827,-59.472547c-0.145395,-0.165858 -2.41607,1.06906 -5.04395,2.742058c-10.419976,6.637907 -12.340626,6.035772 -41.320902,-12.960324c-140.643643,-92.186143 -131.625563,-85.640179 -131.632743,-95.52673c-0.008975,-10.751895 10.078926,-17.593519 20.227856,-13.719303" id="svg_3"/>
   <path stroke="null" fill-rule="evenodd" fill="#649bd8" d="m221.068777,53.092439c1.74474,1.921784 4.31877,5.523777 5.720665,8.002626c1.40369,2.478849 2.55608,4.031059 2.56326,3.450558c0.019745,-1.768546 -5.512445,-9.807228 -8.574715,-12.455541c-2.69968,-2.336428 -2.679935,-2.271527 0.29079,1.002356m-47.242608,1.242129c-3.160995,3.345996 -6.77792,9.60892 -5.99889,10.391335c0.24053,0.241575 1.046485,-1.03661 1.789615,-2.841212c0.744925,-1.802799 2.877385,-4.972121 4.7388,-7.041734c4.14645,-4.609758 3.728215,-5.013585 -0.529525,-0.508389m-8.13494,21.783224c-0.005385,4.132016 0.339255,8.410059 0.766465,9.509766c0.42721,1.097905 0.586965,-1.831644 0.353615,-6.509908c-0.547475,-11.036737 -1.10931,-12.538469 -1.12008,-2.999858m64.979004,0.501178c0.005385,3.304531 0.192065,4.535843 0.41285,2.736649c0.22258,-1.800997 0.21899,-4.505196 -0.008975,-6.010533c-0.227965,-1.503535 -0.40926,-0.030648 -0.403875,3.273884m-60.272513,17.278029c8.60882,16.124237 35.855127,20.11924 49.990753,7.328379c3.28844,-2.974619 3.18792,-2.945774 -1.753715,0.490361c-14.345641,9.980297 -31.428657,8.529044 -43.404897,-3.686725c-3.171765,-3.236025 -5.347305,-5.094711 -4.83214,-4.132016m-26.973467,27.687392c-6.496105,1.755927 -15.776256,9.509766 -15.776256,13.178463c0,0.411038 1.30317,-1.060046 2.895335,-3.268475c7.10461,-9.848693 11.961881,-10.777134 42.922042,-8.195526c29.741357,2.480652 35.174822,4.568293 40.076967,15.408526c0.999815,2.208429 1.82731,3.428924 1.83808,2.713213c0.073595,-4.312296 -9.115011,-14.142961 -15.020561,-16.071956c-2.496845,-0.816668 -50.897228,-5.549016 -52.092698,-5.094711c-0.09693,0.037859 -2.27606,0.636388 -4.84291,1.330466m-17.149431,16.167504c-0.342845,0.895991 -0.57081,2.830395 -0.507985,4.299676c0.08616,2.00291 0.310535,1.667589 0.892115,-1.332269c0.827495,-4.258212 0.644405,-5.66079 -0.38413,-2.967408m89.462805,12.48078c0,4.132016 0.17591,5.823042 0.39131,3.757034c0.2154,-2.066008 0.2154,-5.446257 0,-7.512265c-0.2154,-2.066008 -0.39131,-0.374982 -0.39131,3.755231m100.153826,-5.282202c1.79141,0.221744 4.48391,0.218139 5.982735,-0.010817c1.498825,-0.228956 0.03231,-0.411038 -3.25972,-0.40563c-3.290235,0.005408 -4.51622,0.1929 -2.723015,0.416447m-190.900056,8.287468c0,4.132016 0.17591,5.821239 0.39131,3.755231c0.213605,-2.064205 0.213605,-5.444454 0,-7.510462c-0.2154,-2.066008 -0.39131,-0.376785 -0.39131,3.755231m177.11625,-4.157255c-2.439405,1.568435 -5.32397,3.935511 -6.413535,5.256963c-1.72679,2.100261 -1.60114,2.066008 0.99802,-0.277631c1.63704,-1.47469 4.995485,-3.836357 7.46361,-5.246146c2.468125,-1.409789 4.01362,-2.568989 3.43563,-2.574397c-0.57799,-0.007211 -3.046115,1.270974 -5.483725,2.841212m-119.548802,3.111632c0.85801,1.30703 2.285035,2.482455 3.16997,2.614059c0.88673,0.129802 5.232425,3.005266 9.658896,6.389121c4.42647,3.385657 8.04878,5.925801 8.04878,5.644565c0,-0.501178 -18.034366,-14.389944 -20.942266,-16.127843c-1.28163,-0.76619 -1.272655,-0.555262 0.06462,1.480098m157.744609,1.752321c5.512445,6.351262 7.91236,11.891264 8.799091,20.306732l0.79339,7.530293l-0.271045,-7.578968c-0.31233,-8.739971 -3.29203,-15.442779 -9.387851,-21.125202l-3.588205,-3.344193l3.65462,4.211339m-125.718217,10.490489c-0.159755,5.035219 -0.43798,5.740113 -2.42325,6.124109l-2.24375,0.434475l2.274265,0.13521c2.841485,0.171266 3.430245,-1.325058 2.95098,-7.501448l-0.378745,-4.880178l-0.1795,5.687832m-90.59186,5.82845c0,4.132016 0.17591,5.823042 0.39131,3.757034c0.2154,-2.066008 0.2154,-5.446257 0,-7.512265c-0.2154,-2.066008 -0.39131,-0.374982 -0.39131,3.755231m74.024009,1.754124c2.593775,3.441544 5.426285,6.821793 6.295065,7.510462c1.78064,1.413395 -3.089195,-4.943276 -7.863895,-10.265139c-1.73038,-1.928995 -1.024945,-0.688669 1.56883,2.754677m-42.221992,-0.665233c2.622495,6.58202 6.119155,13.904991 6.470975,13.553445c0.23694,-0.23797 -0.27643,-1.804602 -1.13803,-3.481205c-2.63865,-5.123556 -1.728585,-5.864506 2.019375,-1.645956c2.295805,2.583411 1.8668,1.759532 -1.208035,-2.316597c-4.79265,-6.353065 -7.192565,-8.741774 -6.144285,-6.109687m-32.807217,14.436817c0.005385,3.854385 0.184885,5.309244 0.400285,3.232419c0.2154,-2.078628 0.21181,-5.233526 -0.00718,-7.011087c-0.220785,-1.77756 -0.396695,-0.07752 -0.393105,3.778667m48.118568,4.506998c2.586595,3.304531 5.401155,6.571204 6.25737,7.259873c0.856215,0.688669 -1.05546,-2.01553 -4.248765,-6.00873c-3.19151,-3.9932 -6.007865,-7.261676 -6.255575,-7.261676c-0.249505,0 1.66217,2.704199 4.24697,6.010533m195.795021,-2.253499c-4.64187,5.013585 -7.307445,8.262229 -6.779715,8.262229c0.23694,0 2.801995,-2.704199 5.699125,-6.00873c5.817595,-6.63971 6.54816,-8.163075 1.08059,-2.253499m-23.615021,5.338089c-1.786025,2.709607 -3.04073,4.927051 -2.787635,4.927051c0.680305,0 6.786895,-9.096925 6.381225,-9.504358c-0.192065,-0.1929 -1.80936,1.8677 -3.59359,4.577307m-20.112976,-2.585214c0,0.551657 0.640815,2.129106 1.42523,3.506445c0.78262,1.377339 1.42523,2.053388 1.42523,1.501732c0,-0.549854 -0.64261,-2.127303 -1.42523,-3.504642c-0.784415,-1.377339 -1.42523,-2.053388 -1.42523,-1.503535m153.264289,4.214945c1.240345,0.239772 3.035345,0.230758 3.98849,-0.021634c0.953145,-0.250589 -0.06103,-0.445291 -2.256315,-0.434475c-2.19349,0.010817 -2.97252,0.216336 -1.732175,0.456108m-354.438925,7.30314c0,4.132016 0.17591,5.821239 0.39131,3.757034c0.2154,-2.066008 0.2154,-5.446257 0,-7.512265c-0.2154,-2.066008 -0.39131,-0.374982 -0.39131,3.755231m290.852842,-3.665091c0,0.290251 2.683525,2.644707 5.96299,5.231724c3.27767,2.587017 5.720665,5.096514 5.426285,5.576058c-0.296175,0.477742 -0.023335,0.870752 0.60312,0.870752c0.626455,0 0.9693,-0.511995 0.76108,-1.135764c-0.403875,-1.21689 -12.753476,-11.426142 -12.753476,-10.54277m-231.353973,4.667447c1.73756,2.203021 3.383575,4.00582 3.656415,4.00582c0.274635,0 -0.92263,-1.802799 -2.66019,-4.00582c-1.73756,-2.203021 -3.383575,-4.00582 -3.65821,-4.00582c-0.27284,0 0.924425,1.802799 2.661985,4.00582m268.251995,6.118701c-10.716151,6.958805 -17.985901,12.203149 -12.963491,9.349317c3.05509,-1.734293 24.465851,-15.725818 25.379506,-16.582148c2.20785,-2.073219 -0.658765,-0.403827 -12.416016,7.232831m-152.343454,-4.115791c0,1.927192 0.20463,2.716819 0.45593,1.752321c0.2513,-0.964498 0.2513,-2.541947 0,-3.504642c-0.2513,-0.964498 -0.45593,-0.176674 -0.45593,1.752321m193.728976,3.499233c0,3.473994 0.335665,6.109687 0.74672,5.857295c0.96212,-0.591318 0.949555,-9.491738 -0.01436,-11.016907c-0.403875,-0.636388 -0.73236,1.685617 -0.73236,5.159612m-180.815745,-0.995145c0.62466,1.377339 1.523955,2.504088 1.99604,2.504088c0.47388,0 0.12565,-1.12675 -0.773645,-2.504088c-0.8975,-1.377339 -1.795,-2.504088 -1.99604,-2.504088c-0.199245,0 0.148985,1.12675 0.773645,2.504088m8.793706,0c-2.468125,1.32686 -4.03875,2.412145 -3.48948,2.412145c0.547475,0 3.0156,-1.085285 5.483725,-2.412145c2.468125,-1.32686 4.03875,-2.413948 3.491275,-2.413948c-0.54927,0 -3.017395,1.087088 -5.48552,2.413948m74.140684,-1.368325c1.319325,0.769795 2.152205,0.760781 2.942005,-0.030648c0.802365,-0.805851 0.303355,-1.097905 -1.84167,-1.074468c-2.579415,0.027042 -2.71404,0.162252 -1.100335,1.105116m-44.223418,3.872413c-1.73756,2.203021 -2.934825,4.00582 -2.66019,4.00582c0.27284,0 1.918855,-1.802799 3.656415,-4.00582c1.73756,-2.204824 2.934825,-4.007623 2.661985,-4.007623c-0.274635,0 -1.92065,1.802799 -3.65821,4.007623m51.855758,-0.501178c1.37138,0.787823 2.942005,1.431423 3.48948,1.431423c0.54927,0 -0.123855,-0.643599 -1.495235,-1.431423c-1.37138,-0.787823 -2.942005,-1.431423 -3.491275,-1.431423c-0.547475,0 0.12565,0.643599 1.49703,1.431423m7.97698,3.504642c1.92065,1.05644 3.940025,1.919981 4.4875,1.919981c0.54927,0 -0.572605,-0.863541 -2.493255,-1.919981c-1.918855,-1.054638 -3.93823,-1.918178 -4.4875,-1.918178c-0.547475,0 0.5744,0.863541 2.493255,1.918178m-287.862372,6.010533c0,4.130213 0.177705,5.821239 0.39131,3.755231c0.2154,-2.066008 0.2154,-5.446257 0,-7.512265c-0.213605,-2.064205 -0.39131,-0.374982 -0.39131,3.757034m296.837372,-2.00291c1.92065,1.054638 3.940025,1.918178 4.4875,1.918178c0.54927,0 -0.572605,-0.863541 -2.493255,-1.918178c-1.918855,-1.05644 -3.93823,-1.919981 -4.4875,-1.919981c-0.547475,0 0.5744,0.863541 2.493255,1.919981m-297.833597,18.027993c0,4.130213 0.17591,5.821239 0.39131,3.755231c0.2154,-2.066008 0.2154,-5.446257 0,-7.512265c-0.2154,-2.066008 -0.39131,-0.374982 -0.39131,3.757034m260.78659,-2.754677c0.68569,0.688669 1.67294,1.30703 2.195285,1.377339c0.52055,0.068506 1.42164,0.18028 2.00322,0.250589c0.579785,0.068506 0.809545,0.524615 0.50978,1.013173c-0.30156,0.488559 0.23335,1.501732 1.186495,2.253499c1.56883,1.234918 1.60473,1.198862 0.36618,-0.387602c-1.15957,-1.485507 -1.15957,-1.759532 0,-1.795588c0.752105,-0.023436 -0.202835,-0.905005 -2.12169,-1.961446c-4.029775,-2.213838 -5.943245,-2.561778 -4.13927,-0.749965m75.440264,6.881285c-9.466831,6.124109 -17.573051,12.103995 -10.470236,7.723192c13.437371,-8.289271 23.160886,-14.939798 21.688986,-14.837038c-0.13642,0.009014 -5.185755,3.210786 -11.218751,7.113846m-247.499999,-0.621966c0.005385,3.304531 0.192065,4.535843 0.41285,2.736649c0.22258,-1.800997 0.217195,-4.505196 -0.008975,-6.010533c-0.227965,-1.503535 -0.40926,-0.030648 -0.403875,3.273884m188.038826,0.531826c4.593405,2.233668 8.524455,3.886835 8.738061,3.672302c0.213605,-0.214533 -2.870205,-1.851475 -6.85331,-3.639852c-10.520496,-4.721531 -11.563391,-4.739559 -1.88475,-0.03245m-1.868595,4.270832c0,0.255998 2.11092,2.201218 4.690335,4.324916c2.58121,2.123698 4.36903,3.336982 3.975925,2.696988c-0.838265,-1.361113 -8.66626,-7.705164 -8.66626,-7.021903m14.959531,1.707251c1.918855,1.05644 3.93823,1.919981 4.4875,1.919981c0.547475,0 -0.5744,-0.863541 -2.493255,-1.919981c-1.92065,-1.054638 -3.940025,-1.918178 -4.4875,-1.918178c-0.54927,0 0.572605,0.863541 2.493255,1.918178m-290.854637,6.00873c0,4.132016 0.17591,5.823042 0.39131,3.757034c0.2154,-2.066008 0.2154,-5.446257 0,-7.512265c-0.2154,-2.066008 -0.39131,-0.374982 -0.39131,3.755231m228.945083,-4.642208c1.326505,1.64235 5.067285,4.124805 5.067285,3.364024c0,-0.191097 -1.45754,-1.420606 -3.239975,-2.729438c-2.00681,-1.47469 -2.70327,-1.718068 -1.82731,-0.634585m-140.228998,4.642208c0,3.030506 0.188475,4.270832 0.41644,2.754677c0.227965,-1.514351 0.227965,-3.9932 0,-5.507552c-0.227965,-1.516154 -0.41644,-0.275828 -0.41644,2.752875m248.508789,4.106777c-9.470421,6.127715 -16.303986,11.107047 -11.468256,8.357778c3.006625,-1.710857 21.468201,-13.744542 22.387241,-14.593661c2.227595,-2.056994 -0.6103,-0.436277 -10.918986,6.235883m-124.651987,-5.386764c0.98725,1.007765 20.556341,14.177214 23.433726,15.769086c3.97413,2.201218 -1.455745,-1.842461 -10.969246,-8.166681c-11.538261,-7.672714 -14.015361,-9.181657 -12.464481,-7.602405m97.976491,2.989041c1.23496,0.23797 3.254335,0.23797 4.4875,0c1.23496,-0.23797 0.224375,-0.434475 -2.24375,-0.434475c-2.468125,0 -3.476915,0.196505 -2.24375,0.434475m-222.818748,9.809031c0.005385,3.306334 0.19027,4.537646 0.41285,2.736649c0.22258,-1.799194 0.217195,-4.503393 -0.01077,-6.00873c-0.22617,-1.505337 -0.40926,-0.03245 -0.40208,3.272081m-41.620667,8.514621c0.36618,1.375536 1.082385,3.178335 1.59037,4.00582c0.64261,1.043821 0.72159,0.737345 0.256685,-1.002356c-0.36618,-1.377339 -1.082385,-3.180138 -1.59037,-4.00582c-0.64261,-1.043821 -0.72159,-0.739148 -0.256685,1.002356m-6.38302,2.00291c-0.03231,1.377339 0.314125,4.306888 0.766465,6.509908c0.529525,2.568989 0.84724,3.108026 0.88314,1.501732c0.03231,-1.377339 -0.314125,-4.306888 -0.76826,-6.509908c-0.529525,-2.568989 -0.845445,-3.108026 -0.881345,-1.501732m-38.833032,3.003464c0,1.928995 0.20463,2.716819 0.45593,1.754124c0.2513,-0.964498 0.2513,-2.541947 0,-3.506445c-0.2513,-0.964498 -0.45593,-0.174872 -0.45593,1.752321m195.895541,-0.92123c1.236755,1.505337 7.30565,5.339892 7.30565,4.616969c0,-0.232561 -1.90629,-1.68742 -4.237995,-3.232419c-2.32991,-1.543196 -3.710265,-2.166965 -3.067655,-1.38455m-146.690998,6.931763c0.36618,1.377339 1.082385,3.180138 1.59037,4.00582c0.64261,1.043821 0.72159,0.739148 0.25848,-1.002356c-0.367975,-1.377339 -1.08418,-3.180138 -1.592165,-4.00582c-0.64261,-1.043821 -0.719795,-0.739148 -0.256685,1.002356m154.994669,-1.599083c0,0.378588 17.400731,12.093178 25.429766,17.119382c6.280705,3.931905 0.59235,-0.501178 -7.978775,-6.216052c-12.153946,-8.107189 -17.450991,-11.417128 -17.450991,-10.90333m154.560279,7.234634c-7.867485,5.238935 -12.608081,8.862561 -8.966026,6.85244c2.26888,-1.251143 16.321936,-10.638319 17.402526,-11.62445c2.26888,-2.071416 -0.55286,-0.475939 -8.4365,4.77201m-74.111964,-3.553317c1.23855,1.505337 7.307445,5.339892 7.307445,4.616969c0,-0.232561 -1.908085,-1.68742 -4.237995,-3.232419c-2.331705,-1.543196 -3.71206,-2.166965 -3.06945,-1.38455m-243.761014,2.92414c0,1.928995 0.20463,2.716819 0.45593,1.754124c0.2513,-0.964498 0.2513,-2.541947 0,-3.506445c-0.2513,-0.962695 -0.45593,-0.174872 -0.45593,1.752321m-38.892267,2.004713c0,1.927192 0.20463,2.716819 0.45593,1.752321c0.2513,-0.964498 0.2513,-2.541947 0,-3.506445c-0.2513,-0.962695 -0.45593,-0.174872 -0.45593,1.754124m51.198788,4.00582c0.36618,1.377339 1.082385,3.180138 1.59037,4.00582c0.64261,1.043821 0.72159,0.739148 0.25848,-1.002356c-0.367975,-1.375536 -1.082385,-3.178335 -1.592165,-4.00582c-0.640815,-1.043821 -0.719795,-0.737345 -0.256685,1.002356m-50.260003,2.00291c-0.03231,1.377339 0.314125,4.306888 0.766465,6.509908c0.529525,2.568989 0.84724,3.108026 0.88314,1.501732c0.03231,-1.377339 -0.314125,-4.306888 -0.76826,-6.509908c-0.529525,-2.568989 -0.845445,-3.108026 -0.881345,-1.501732m369.279986,0.639994c-5.088825,3.389263 -6.88203,5.17764 -2.9079,2.900704c3.498455,-2.004713 8.165455,-5.487721 7.3954,-5.521974c-0.28361,-0.01262 -2.302985,1.168214 -4.4875,2.62127m-28.152782,1.478295c-3.39973,2.186796 -4.500065,3.654274 -1.49703,1.995699c2.288625,-1.26196 5.87324,-4.045482 5.236015,-4.065312c-0.274635,-0.009014 -1.95655,0.923033 -3.738985,2.069614m-301.179477,2.889887c0,1.927192 0.20463,2.716819 0.45593,1.752321c0.2513,-0.964498 0.2513,-2.541947 0,-3.506445c-0.2513,-0.962695 -0.45593,-0.174872 -0.45593,1.754124m455.133046,-1.083482c1.71961,1.051032 3.850275,2.952985 4.737005,4.223959c0.88673,1.272776 1.61191,1.808208 1.61191,1.19165c0,-1.42962 -6.65586,-7.339196 -8.26059,-7.333788c-0.66774,0.001803 0.19386,0.865344 1.911675,1.918178m-441.828505,2.084036c0.36618,1.377339 1.082385,3.180138 1.59037,4.00582c0.64261,1.045624 0.72159,0.739148 0.256685,-1.000554c-0.36618,-1.377339 -1.082385,-3.180138 -1.59037,-4.00582c-0.64261,-1.043821 -0.72159,-0.739148 -0.256685,1.000554m231.282173,-1.285396c1.57242,1.595477 16.454766,11.418931 16.454766,10.861866c0,-0.275828 -3.254335,-2.687974 -7.23026,-5.361525c-8.22469,-5.530988 -10.723331,-7.020101 -9.224506,-5.500341m70.784034,4.930656c-5.08703,3.389263 -6.880235,5.17764 -2.9079,2.900704c3.498455,-2.004713 8.165455,-5.487721 7.3954,-5.521974c-0.28361,-0.01262 -2.302985,1.168214 -4.4875,2.62127m-314.433758,1.362916c-0.030515,1.377339 0.314125,4.306888 0.76826,6.509908c0.529525,2.570792 0.845445,3.108026 0.88314,1.501732c0.030515,-1.375536 -0.314125,-4.305085 -0.76826,-6.509908c-0.529525,-2.568989 -0.845445,-3.108026 -0.88314,-1.501732m200.205336,0.81126c1.333685,1.088891 3.80181,2.740255 5.483725,3.672302l3.056885,1.692829l-2.42684,-1.979474c-1.333685,-1.088891 -3.80181,-2.742058 -5.483725,-3.672302l-3.05868,-1.692829l2.428635,1.979474m-239.095809,1.19165c-0.03231,1.377339 0.314125,4.306888 0.76826,6.509908c0.52773,2.570792 0.845445,3.108026 0.881345,1.503535c0.03231,-1.377339 -0.314125,-4.306888 -0.76826,-6.511711c-0.529525,-2.568989 -0.845445,-3.108026 -0.881345,-1.501732m54.248493,1.002356c0.367975,1.377339 1.08418,3.180138 1.592165,4.00582c0.64261,1.043821 0.719795,0.739148 0.256685,-1.002356c-0.36618,-1.377339 -1.082385,-3.180138 -1.59037,-4.00582c-0.64261,-1.043821 -0.72159,-0.739148 -0.25848,1.002356m197.378211,5.734705c0.974685,0.998751 29.452362,20.128254 32.408727,21.770605c4.518015,2.509497 -2.184515,-2.332822 -15.456746,-11.170145c-15.975501,-10.638319 -18.576456,-12.264444 -16.951981,-10.60046m77.533234,5.397581c-3.39973,2.184993 -4.49827,3.654274 -1.495235,1.995699c2.28683,-1.263762 5.871445,-4.047284 5.23422,-4.065312c-0.27284,-0.009014 -1.95655,0.923033 -3.738985,2.069614m-326.765409,3.654274c0.396695,4.209536 -0.421825,8.633606 -4.058495,21.918434c-2.507615,9.154615 -4.31877,16.885018 -4.026185,17.178875c0.292585,0.293856 0.53132,0.239772 0.53132,-0.118985c0,-0.36056 2.048095,-8.134231 4.550325,-17.276226c4.176965,-15.255288 4.46596,-17.049073 3.52897,-21.799449l-1.021355,-5.175837l0.49542,5.273188m463.135157,-3.939117c0.823905,0.510192 2.618905,1.229509 3.990285,1.59728c1.732175,0.466925 2.03553,0.387602 0.996225,-0.2578c-0.82211,-0.510192 -2.61711,-1.229509 -3.98849,-1.59728c-1.732175,-0.466925 -2.037325,-0.387602 -0.99802,0.2578m30.242162,2.246288c-0.590555,0.593121 -2.81097,1.70004 -4.93625,2.460821c-2.241955,0.802246 -3.028165,1.400775 -1.87039,1.424211c1.926035,0.037859 8.47599,-3.396474 8.47599,-4.445703c0,-0.787823 -0.49183,-0.621966 -1.66935,0.560671m-20.412741,1.555816c1.84167,0.807654 4.758545,1.68742 6.481745,1.956037c1.724995,0.27042 0.443365,-0.420052 -2.848665,-1.532379c-6.937675,-2.347245 -8.413165,-2.518511 -3.63308,-0.423658m-433.33995,5.882534c0.005385,3.304531 0.192065,4.535843 0.414645,2.734847c0.220785,-1.799194 0.217195,-4.503393 -0.01077,-6.00873c-0.227965,-1.505337 -0.40926,-0.03245 -0.403875,3.273884m368.777386,6.084448c1.617295,4.523223 10.215346,23.436391 10.515111,23.135324c0.42721,-0.430869 -9.210146,-22.650371 -10.236886,-23.598643c-0.36618,-0.337123 -0.49183,-0.129802 -0.278225,0.463319m-371.507581,7.005678c-0.36618,1.469281 -0.47388,2.862845 -0.238735,3.099012c0.235145,0.236167 0.726975,-0.771598 1.093155,-2.239077c0.367975,-1.469281 0.475675,-2.862845 0.24053,-3.099012c-0.235145,-0.236167 -0.72877,0.771598 -1.09495,2.239077m-2.992265,11.018709c-0.36618,1.467479 -0.47388,2.861043 -0.238735,3.097209c0.235145,0.236167 0.726975,-0.771598 1.09495,-2.239077c0.36618,-1.467479 0.47388,-2.862845 0.238735,-3.099012c-0.235145,-0.236167 -0.726975,0.771598 -1.09495,2.24088m301.683872,-2.075022c0,0.549854 1.30317,3.479403 2.89713,6.509908c1.59396,3.028703 2.89713,5.056852 2.89713,4.506998c0,-0.551657 -1.30317,-3.481205 -2.89713,-6.509908c-1.59396,-3.030506 -2.89713,-5.058655 -2.89713,-4.506998m-282.308641,4.775615c0,0.329912 -2.25452,11.303552 -5.009845,24.382861c-2.755325,13.079309 -4.86804,24.209792 -4.693925,24.734407c0.174115,0.524615 2.658395,-10.218267 5.519625,-23.872669c2.86123,-13.654402 4.97215,-25.055305 4.69213,-25.336542c-0.278225,-0.281237 -0.507985,-0.239772 -0.507985,0.091943m264.51301,1.422409c0.960325,0.252392 2.53095,0.252392 3.491275,0c0.95853,-0.250589 0.174115,-0.457911 -1.746535,-0.457911c-1.918855,0 -2.705065,0.207322 -1.74474,0.457911m-286.368931,4.901811c-0.64261,2.567186 -0.98366,4.854939 -0.7539,5.085697c0.227965,0.228956 0.942375,-1.683815 1.584985,-4.251001c0.644405,-2.567186 0.98366,-4.854939 0.7539,-5.083894c-0.227965,-0.230758 -0.94058,1.682012 -1.584985,4.249198m388.215442,-1.584661c0.816725,2.985436 5.896575,14.061835 6.27532,13.681444c0.213605,-0.214533 -1.20265,-3.719175 -3.14843,-7.788093c-1.94578,-4.067115 -3.35306,-6.720836 -3.12689,-5.893351m-390.719467,10.58784c-0.367975,1.467479 -0.475675,2.861043 -0.24053,3.097209c0.235145,0.236167 0.726975,-0.771598 1.09495,-2.239077c0.36618,-1.467479 0.47388,-2.862845 0.238735,-3.099012c-0.235145,-0.236167 -0.726975,0.771598 -1.093155,2.24088m318.610723,4.936065c0,0.549854 0.64261,2.127303 1.42523,3.504642c0.784415,1.377339 1.42523,2.053388 1.42523,1.501732c0,-0.549854 -0.640815,-2.127303 -1.42523,-3.504642c-0.78262,-1.377339 -1.42523,-2.053388 -1.42523,-1.501732m78.78076,0c0,0.549854 0.640815,2.127303 1.42523,3.504642c0.784415,1.377339 1.42523,2.053388 1.42523,1.501732c0,-0.549854 -0.640815,-2.127303 -1.42523,-3.504642c-0.784415,-1.377339 -1.42523,-2.053388 -1.42523,-1.501732m-400.383748,6.080842c-0.36618,1.467479 -0.47388,2.861043 -0.24053,3.097209c0.235145,0.236167 0.72877,-0.771598 1.09495,-2.239077c0.36618,-1.467479 0.47388,-2.862845 0.24053,-3.099012c-0.235145,-0.234364 -0.72877,0.773401 -1.09495,2.24088m-1.994245,7.011087c-0.367975,1.467479 -0.475675,2.861043 -0.24053,3.097209c0.235145,0.236167 0.72877,-0.771598 1.09495,-2.239077c0.36618,-1.467479 0.47388,-2.862845 0.238735,-3.099012c-0.235145,-0.236167 -0.726975,0.771598 -1.093155,2.24088m17.933846,21.015232c-0.375155,2.010121 -0.482855,3.856188 -0.238735,4.099566c0.242325,0.245181 0.75031,-1.198862 1.125465,-3.208983c0.375155,-2.010121 0.482855,-3.854385 0.238735,-4.099566c-0.24412,-0.245181 -0.75031,1.200664 -1.125465,3.208983m298.612627,0.445291l-23.435521,0.557065l23.685026,0.221744c15.271861,0.144224 23.683231,-0.131604 23.683231,-0.778809c0,-0.549854 -0.11129,-0.9014 -0.249505,-0.778809c-0.13642,0.12259 -10.793336,0.474136 -23.683231,0.778809m111.991851,0.748162c5.92709,0.178477 15.350841,0.176674 20.942266,-0.001803c5.591425,-0.176674 0.74313,-0.322701 -10.773591,-0.322701c-11.518516,0.001803 -16.093971,0.14783 -10.168676,0.324504m-373.250526,9.69906c-0.701845,3.731795 -2.47351,8.503804 -4.13568,11.137694c-1.599345,2.532933 -2.453765,4.323113 -1.89911,3.978778c3.157405,-1.959643 9.511706,-19.385501 7.72568,-21.181089c-0.25489,-0.255998 -1.01597,2.473441 -1.69089,6.064617m-38.596092,0.070309c0.005385,3.304531 0.192065,4.535843 0.41285,2.734847c0.22258,-1.799194 0.21899,-4.503393 -0.008975,-6.00873c-0.227965,-1.505337 -0.40926,-0.03245 -0.403875,3.273884m0.691075,6.892102c-0.00718,1.894742 4.159015,7.506856 6.74561,9.084306l2.72481,1.662181l-2.636855,-2.309386c-1.45036,-1.270974 -3.57923,-3.886835 -4.733415,-5.815831c-1.15239,-1.927192 -2.09656,-3.108026 -2.10015,-2.62127m-30.418072,3.951736c-1.096745,1.705448 -3.519995,4.133819 -5.383205,5.393976c-1.86321,1.260157 -2.888155,2.289555 -2.277855,2.289555c1.46831,0 7.957235,-5.759944 9.274766,-8.235187c1.703455,-3.19456 0.5385,-2.797945 -1.613705,0.551657m295.889612,2.603242c0.78621,1.335874 2.518385,3.082787 3.84848,3.877821l2.41966,1.449451l-2.213235,-1.876714c-1.218805,-1.031201 -2.95098,-2.776311 -3.84848,-3.877821c-1.559855,-1.910967 -1.56883,-1.891136 -0.206425,0.427263" id="svg_4"/>
   <path stroke="null" fill-rule="evenodd" fill="#c5d9f0" d="m214.018017,49.027126c6.025815,3.470389 9.807881,7.710573 12.997596,14.572027c1.28163,2.754677 2.3335,4.425872 2.338885,3.715569c0.044875,-5.938421 -13.961511,-21.282046 -19.382411,-21.23337c-0.57799,0.005408 1.24214,1.330466 4.04593,2.945774m-38.682252,4.806263c-1.965525,2.066008 -4.08901,4.881981 -4.719055,6.259319l-1.143415,2.504088l1.77346,-2.495074c0.97648,-1.37193 3.28485,-4.187903 5.131905,-6.259319c4.345695,-4.874769 3.59359,-4.880178 -1.042895,-0.009014m-7.702345,12.419485c-0.601325,1.734293 -1.042895,4.324916 -0.98007,5.758141c0.095135,2.143528 0.24053,1.983079 0.823905,-0.9014c0.39131,-1.927192 1.042895,-4.517815 1.448565,-5.758141c0.407465,-1.238523 0.52773,-2.253499 0.271045,-2.253499c-0.25848,0 -0.960325,1.418803 -1.563445,3.154899m-0.863395,14.873094c0,1.927192 0.20463,2.716819 0.45593,1.752321c0.2513,-0.962695 0.2513,-2.540144 0,-3.504642c-0.2513,-0.964498 -0.45593,-0.174872 -0.45593,1.752321m0.845445,4.806263c-0.087955,1.449451 2.679935,7.213 3.462555,7.213c0.274635,0 -0.12565,-1.240326 -0.88673,-2.754677c-0.76108,-1.514351 -1.635245,-3.430727 -1.940395,-4.256409c-0.375155,-1.009568 -0.583375,-1.076271 -0.63543,-0.201914m58.996268,4.580913c-1.73756,3.830949 -7.364885,9.767567 -12.152151,12.823312c-2.43761,1.555816 -4.00285,2.828592 -3.476915,2.828592c4.022595,0 19.204706,-15.531116 17.176356,-17.570082c-0.256685,-0.255998 -0.953145,0.605741 -1.54729,1.918178m-51.139553,7.88905c2.44479,2.617665 4.57725,4.757587 4.737005,4.757587c0.748515,0 -0.04308,-0.899597 -4.446215,-5.049641l-4.737005,-4.465534l4.446215,4.757587m-26.634212,23.476053c0.960325,0.252392 2.53095,0.252392 3.491275,0c0.95853,-0.252392 0.174115,-0.457911 -1.746535,-0.457911c-1.918855,0 -2.705065,0.205519 -1.74474,0.457911m12.477046,1.020384c1.240345,0.239772 3.035345,0.230758 3.98849,-0.021634c0.953145,-0.250589 -0.06103,-0.445291 -2.25452,-0.434475c-2.19349,0.010817 -2.974315,0.216336 -1.73397,0.456108m11.967266,1.000554c1.240345,0.239772 3.035345,0.230758 3.98849,-0.019831c0.953145,-0.250589 -0.06103,-0.447094 -2.256315,-0.436277c-2.19349,0.01262 -2.97252,0.216336 -1.732175,0.456108m12.453711,0.984328c0.95853,0.252392 2.529155,0.252392 3.48948,0c0.960325,-0.252392 0.174115,-0.457911 -1.74474,-0.457911c-1.92065,0 -2.705065,0.205519 -1.74474,0.457911m22.870096,7.962965c1.979885,2.278738 3.911305,5.130767 4.291845,6.335037c0.38054,1.20427 0.90827,1.97046 1.17393,1.705448c0.874165,-0.877963 -2.42684,-6.129518 -5.774515,-9.181657c-3.27049,-2.985436 -3.268695,-2.978224 0.30874,1.141172m6.15326,17.887375c-0.00359,4.957698 0.16514,7.112043 0.375155,4.788235c0.20822,-2.325611 0.21181,-6.38191 0.005385,-9.013997c-0.206425,-2.63389 -0.37695,-0.731937 -0.38054,4.225762m-88.77173,0.501178c0,4.132016 0.17591,5.821239 0.39131,3.755231c0.2154,-2.066008 0.2154,-5.446257 0,-7.510462c-0.2154,-2.066008 -0.39131,-0.376785 -0.39131,3.755231m183.517221,-4.918037c-4.53058,1.317846 -12.258056,6.870468 -15.207241,10.926767c-2.044505,2.810564 -1.66576,2.587017 1.90988,-1.130355c11.737506,-12.206754 29.867007,-13.367757 42.521757,-2.722227l4.815985,4.05089l-4.72444,-4.506998c-7.2518,-6.919144 -19.097006,-9.592695 -29.315942,-6.618076m-130.002882,2.702396c0,0.434475 1.23496,2.148937 2.74276,3.811118c1.509595,1.662181 2.109125,2.204824 1.33548,1.207876c-2.50223,-3.227011 -0.29079,-3.133265 3.853865,0.164055c2.220415,1.764941 4.03516,2.961999 4.03516,2.657326c0,-0.686867 -10.407411,-8.63 -11.308501,-8.63c-0.36259,0 -0.658765,0.355151 -0.658765,0.789626m12.965286,8.538058c0,0.248786 1.646015,1.712659 3.660005,3.255856c2.01399,1.541393 3.34588,2.291358 2.96175,1.667589c-0.7898,-1.283593 -6.621755,-5.619325 -6.621755,-4.923445m-67.475849,9.702666c0,4.130213 0.17591,5.821239 0.39131,3.755231c0.213605,-2.066008 0.213605,-5.446257 0,-7.512265c-0.2154,-2.064205 -0.39131,-0.374982 -0.39131,3.757034m88.41632,-2.069614c0,3.528078 -0.285405,3.982384 -2.740965,4.357366c-2.55249,0.387602 -2.518385,0.427263 0.497215,0.566079c3.19869,0.14783 3.24177,0.091943 3.24177,-4.357366c0,-2.478849 -0.224375,-4.506998 -0.49901,-4.506998c-0.274635,0 -0.49901,1.773955 -0.49901,3.940919m-12.604491,-1.164608c0.788005,1.283593 6.621755,5.619325 6.621755,4.923445c0,-0.246984 -1.64781,-1.712659 -3.6618,-3.254053c-2.012195,-1.543196 -3.34588,-2.293161 -2.959955,-1.669392m-46.537173,5.168626c0.292585,1.12675 0.888525,1.828039 1.32471,1.557619c0.436185,-0.27042 6.46918,6.720836 13.408651,15.534722c6.93947,8.815689 12.884511,16.026886 13.211201,16.026886c0.324895,0 -0.08616,-0.787823 -0.917245,-1.752321c-0.831085,-0.964498 -6.65945,-8.287468 -12.950926,-16.275672c-12.428581,-15.7781 -14.963121,-18.494918 -14.076391,-15.091233m165.845445,0.784218c0.82211,0.306476 2.392735,0.971709 3.48948,1.478295c1.96373,0.906808 1.96373,0.895991 0.059235,-0.636388c-1.064435,-0.85633 -2.63506,-1.521563 -3.491275,-1.478295c-1.34266,0.068506 -1.34984,0.155041 -0.05744,0.636388m28.249712,5.794197c0.00359,3.856188 0.184885,5.311047 0.400285,3.232419c0.2154,-2.076825 0.21181,-5.231724 -0.008975,-7.011087c-0.21899,-1.77756 -0.396695,-0.07752 -0.39131,3.778667m-20.633526,0c2.306575,3.955342 2.35504,4.013031 2.35504,2.781719c0,-0.582304 -0.924425,-2.121895 -2.05348,-3.421713l-2.05348,-2.365273l1.75192,3.005266m-203.734307,8.512818c0,4.132016 0.17591,5.821239 0.39131,3.757034c0.2154,-2.066008 0.2154,-5.446257 0,-7.512265c-0.2154,-2.066008 -0.39131,-0.374982 -0.39131,3.755231m192.228356,-3.344193c0.877755,0.236167 2.636855,2.660932 3.90951,5.388567c1.27086,2.729438 2.49146,4.781024 2.708655,4.562885c1.03033,-1.034807 -4.8824,-10.604066 -6.485335,-10.4977c-1.462925,0.099154 -1.48267,0.182083 -0.13283,0.546248m-155.665999,2.516708c0,2.325611 16.406301,37.427917 17.937436,38.377992c0.55645,0.346137 0.14001,-0.861738 -0.928015,-2.686171c-1.068025,-1.82263 -5.12652,-10.506714 -9.018081,-19.297164c-6.5338,-14.759518 -7.99134,-17.750362 -7.99134,-16.394657m144.743423,1.882122c-3.29921,2.019135 -3.476915,2.761889 -1.703455,7.065171c0.479265,1.162806 -0.17232,1.95784 -2.346065,2.862845c-4.01721,1.669392 -5.026,3.091801 -3.93105,5.543608c0.81852,1.831644 0.85801,1.806405 0.46311,-0.274025c-0.350025,-1.838855 0.33746,-2.673551 3.552305,-4.319507c3.02637,-1.550407 3.817965,-2.448201 3.290235,-3.731795c-1.836285,-4.465534 -1.65499,-5.049641 2.177335,-7.081396c2.109125,-1.117736 3.387165,-2.049783 2.837895,-2.073219c-0.547475,-0.021634 -2.50223,0.881569 -4.34031,2.008318m61.523629,3.789484c-5.36346,6.001519 -21.297676,26.641768 -19.892191,25.769213c0.56363,-0.349743 4.740595,-5.466088 9.278356,-11.368453c4.53776,-5.902365 9.998151,-12.646637 12.130611,-14.988474c2.134255,-2.340034 3.642055,-4.256409 3.347675,-4.256409c-0.292585,0 -2.482485,2.179584 -4.86445,4.844122m26.084941,-4.622377c0.62825,0.683261 13.448141,10.818599 21.690781,17.144622c3.426655,2.632087 6.23224,4.553871 6.23224,4.270832c0,-0.549854 -24.415591,-19.69378 -26.925002,-21.112583c-0.82211,-0.465122 -1.27086,-0.600332 -0.99802,-0.30287m-152.325504,4.474548c0.960325,0.252392 2.53095,0.252392 3.491275,0c0.95853,-0.250589 0.174115,-0.457911 -1.746535,-0.457911c-1.918855,0 -2.70327,0.207322 -1.74474,0.457911m9.224506,1.370127c2.19349,0.456108 5.110365,0.804048 6.481745,0.771598c1.599345,-0.036056 1.06264,-0.353349 -1.495235,-0.885174c-2.19349,-0.456108 -5.110365,-0.804048 -6.481745,-0.771598c-1.599345,0.036056 -1.06264,0.355151 1.495235,0.885174m10.719741,1.635139c0.960325,0.252392 2.53095,0.252392 3.491275,0c0.960325,-0.252392 0.174115,-0.457911 -1.74474,-0.457911c-1.92065,0 -2.705065,0.205519 -1.746535,0.457911m-137.523933,7.822346c0.00359,4.407844 0.1795,6.086251 0.389515,3.729992c0.21181,-2.356259 0.20822,-5.961857 -0.005385,-8.01164c-0.2154,-2.051586 -0.38772,-0.124393 -0.38413,4.281648m146.951273,-6.45943c5.429875,1.076271 8.21751,2.525722 11.163106,5.803211c2.360425,2.626679 2.37299,2.628481 0.924425,0.156844c-1.857825,-3.17473 -9.287331,-7.04534 -13.248896,-6.901116c-2.615315,0.093746 -2.45556,0.223547 1.161365,0.941061m202.384467,2.704199c-0.25489,0.412841 2.191695,0.598529 5.437055,0.411038c5.605785,-0.322701 6.076075,-0.164055 9.380671,3.154899c1.91347,1.921784 3.480505,3.136871 3.480505,2.696988c0,-4.306888 -16.097561,-9.816242 -18.298231,-6.262925m-10.123801,6.354868c-7.214105,4.615166 -13.475066,9.430443 -7.47797,5.754535c12.412426,-7.611419 17.109941,-10.85826 15.706251,-10.856458c-0.138215,0 -3.839505,2.294964 -8.22828,5.101922m-135.511738,-1.94522c0.40208,1.923587 0.05026,2.952985 -1.272655,3.726386c-1.0052,0.587713 -1.322915,1.08168 -0.70364,1.097905c2.2976,0.063098 3.717445,-2.879071 2.532745,-5.251554c-1.057255,-2.120092 -1.08418,-2.100261 -0.55645,0.427263m-142.119133,5.669804c3.196895,4.478154 7.72568,7.12286 12.988621,7.578968c2.40171,0.209125 3.469735,0.178477 2.37299,-0.066704c-7.659265,-1.719871 -9.858141,-2.788931 -13.600716,-6.612668c-3.53256,-3.609204 -3.78745,-3.739006 -1.760895,-0.899597m113.589402,0.185688c0,1.653167 0.36977,3.005266 0.823905,3.005266c0.454135,0 0.626455,-1.352099 0.385925,-3.005266c-0.242325,-1.651364 -0.61389,-3.003464 -0.8257,-3.003464c-0.21181,0 -0.38413,1.352099 -0.38413,3.003464m5.982735,0c-4.18594,2.302175 -3.19151,2.677157 1.136235,0.429066c1.667555,-0.865344 3.66539,-1.330466 4.439035,-1.033004c0.77185,0.297462 1.405485,0.104562 1.405485,-0.429066c0,-1.528774 -3.17356,-1.060046 -6.980755,1.033004m84.763495,-1.460267c0,0.739148 13.146581,6.618076 13.656361,6.107884c0.22258,-0.223547 -2.141435,-1.467479 -5.25217,-2.761889c-4.995485,-2.08043 -5.38141,-2.433779 -3.290235,-3.021492c1.91706,-0.54084 1.656785,-0.685064 -1.37497,-0.76619c-2.055275,-0.055887 -3.738985,0.144224 -3.738985,0.441686m-104.476186,3.46498c0,1.927192 0.20463,2.716819 0.45593,1.752321c0.249505,-0.964498 0.249505,-2.541947 0,-3.506445c-0.2513,-0.962695 -0.45593,-0.174872 -0.45593,1.754124m118.936707,-1.453056c3.839505,0.731937 8.10263,1.30703 9.472216,1.278185c1.37138,-0.027042 -0.647995,-0.649008 -4.4875,-1.379141c-3.83771,-0.730134 -8.100835,-1.305227 -9.472216,-1.278185c-1.37138,0.028845 0.647995,0.649008 4.4875,1.379141m-86.576445,1.058243c-2.288625,1.245734 -3.11971,1.296213 -4.4875,0.265012c-1.556265,-1.17182 -1.559855,-1.133961 -0.059235,0.522812c1.552675,1.710857 1.782435,1.70004 5.48552,-0.261406c2.12528,-1.124947 3.415885,-2.04798 2.86841,-2.051586c-0.54927,-0.001803 -2.2617,0.685064 -3.807195,1.525168m100.288451,1.085285c0.95853,0.250589 2.529155,0.250589 3.48948,0c0.960325,-0.252392 0.174115,-0.459714 -1.74474,-0.459714c-1.92065,0 -2.705065,0.207322 -1.74474,0.459714m-295.092632,7.321168c0,4.132016 0.17591,5.821239 0.39131,3.755231c0.2154,-2.064205 0.2154,-5.444454 0,-7.510462c-0.2154,-2.066008 -0.39131,-0.376785 -0.39131,3.755231m326.006124,-4.892797c-3.39973,2.186796 -4.500065,3.654274 -1.49703,1.997502c2.288625,-1.263762 5.87324,-4.047284 5.236015,-4.067115c-0.274635,-0.007211 -1.95655,0.923033 -3.738985,2.069614m-42.132242,1.388155c1.369585,0.786021 2.94021,1.431423 3.48948,1.431423c0.54927,0 -0.123855,-0.645402 -1.495235,-1.431423c-1.37138,-0.787823 -2.942005,-1.431423 -3.491275,-1.431423c-0.547475,0 0.12565,0.643599 1.49703,1.431423m84.763495,-0.036056c0,0.807654 -1.40369,3.172927 -3.117915,5.258766l-3.11971,3.791287l3.616925,-3.742611c3.107145,-3.212588 4.74598,-6.77492 3.11971,-6.77492c-0.274635,0 -0.49901,0.661627 -0.49901,1.467479m-210.329137,5.925801l-2.407095,3.124251l2.85405,-2.72403c1.56883,-1.498126 2.651215,-2.90431 2.407095,-3.124251c-0.245915,-0.218139 -1.52934,1.005962 -2.85405,2.72403m63.126564,0.149632c-0.910065,1.395367 -1.4719,2.718621 -1.251115,2.940366c0.22258,0.223547 1.15957,-0.917625 2.083995,-2.534736c2.05707,-3.601993 1.44677,-3.899455 -0.83288,-0.40563m-76.425719,5.183048c1.23496,0.23797 3.254335,0.23797 4.4875,0c1.23496,-0.23797 0.224375,-0.434475 -2.24375,-0.434475c-2.468125,0 -3.476915,0.196505 -2.24375,0.434475m-146.007103,9.307853c0,4.132016 0.177705,5.823042 0.39131,3.757034c0.2154,-2.066008 0.2154,-5.446257 0,-7.512265c-0.213605,-2.066008 -0.39131,-0.374982 -0.39131,3.755231m219.286188,-3.003464c0,1.927192 0.20463,2.716819 0.45593,1.752321c0.2513,-0.964498 0.2513,-2.541947 0,-3.504642c-0.2513,-0.964498 -0.45593,-0.176674 -0.45593,1.752321m-134.170873,-1.355705c1.200855,0.263209 2.381965,1.357508 2.626085,2.433779c0.34464,1.521563 0.414645,1.451253 0.310535,-0.311884c-0.09693,-1.667589 -0.79339,-2.312992 -2.626085,-2.433779c-2.07502,-0.13521 -2.127075,-0.082929 -0.310535,0.311884m173.3288,3.358615c2.00322,2.222852 3.379985,2.781719 1.628065,0.658022c-0.612095,-0.739148 -0.816725,-1.640547 -0.45593,-2.00291c0.360795,-0.362363 -0.16155,-0.658022 -1.15957,-0.658022c-1.753715,0 -1.753715,0.068506 -0.012565,2.00291m-82.50718,-0.293856c1.240345,0.239772 3.035345,0.230758 3.98849,-0.019831c0.953145,-0.250589 -0.06103,-0.447094 -2.256315,-0.436277c-2.19349,0.01262 -2.97252,0.216336 -1.732175,0.456108m-7.52464,3.048534c-1.541905,1.514351 -1.886545,2.026346 -0.762875,1.137566c1.12367,-0.88878 2.94021,-2.114684 4.036955,-2.72403c1.096745,-0.609346 1.441385,-1.121341 0.762875,-1.137566c-0.676715,-0.018028 -2.493255,1.207876 -4.036955,2.72403m18.231816,-0.027042c0.98366,1.004159 23.518091,16.156688 26.427787,17.76839c4.176965,2.316597 -1.707045,-2.010121 -12.466276,-9.167235c-13.017341,-8.658845 -15.539316,-10.214661 -13.961511,-8.601156m75.678999,0.095548c0.350025,0.571487 7.443865,6.569401 15.761896,13.326293c8.31803,6.758695 14.842856,11.829969 14.498216,11.271101c-0.34464,-0.560671 -7.43848,-6.556781 -15.763691,-13.326293c-8.32521,-6.769511 -14.848241,-11.842589 -14.496421,-11.271101m104.741846,6.585626c-10.664096,7.155311 -11.118231,7.353618 -13.532506,5.882534c-2.24734,-1.370127 -13.814321,4.025651 -13.814321,6.443205c0,0.524615 1.35702,-0.27042 6.873055,-4.023848c4.13568,-2.81417 4.51981,-2.893493 6.916135,-1.433225c2.338885,1.426014 17.300211,-6.742469 24.553806,-13.403813c2.41248,-2.21564 -0.827495,-0.290251 -10.996171,6.535148m-280.332346,-0.895991c0.005385,3.304531 0.192065,4.535843 0.414645,2.736649c0.220785,-1.800997 0.217195,-4.505196 -0.01077,-6.00873c-0.227965,-1.505337 -0.40926,-0.03245 -0.403875,3.272081m133.808283,-4.00582c1.746535,5.671607 10.852571,13.297448 29.926242,25.062516c6.833565,4.216748 0.15437,-0.829288 -10.969246,-8.285666c-12.342421,-8.273046 -15.015176,-10.629305 -17.892561,-15.776297c-0.924425,-1.651364 -1.40369,-2.102064 -1.064435,-1.000554m261.926415,0.070309c4.471345,1.380944 10.823851,7.043537 10.823851,9.646779c0,0.621966 0.274635,0.85633 0.612095,0.517403c2.44479,-2.455413 -8.946281,-11.855208 -14.141011,-11.667717c-1.060845,0.039662 0.156165,0.715711 2.705065,1.503535m-199.591446,4.937867c1.37138,0.786021 2.942005,1.431423 3.491275,1.431423c0.547475,0 -0.12565,-0.645402 -1.495235,-1.431423c-1.37138,-0.787823 -2.942005,-1.431423 -3.491275,-1.431423c-0.547475,0 0.12565,0.643599 1.495235,1.431423m-283.881061,7.011087c0.005385,3.854385 0.184885,5.309244 0.40208,3.232419c0.2154,-2.078628 0.21181,-5.233526 -0.008975,-7.011087c-0.220785,-1.77756 -0.396695,-0.07752 -0.393105,3.778667m164.486629,-2.504088c0,2.478849 0.19386,3.492022 0.432595,2.253499c0.23694,-1.240326 0.23694,-3.268475 0,-4.506998c-0.238735,-1.240326 -0.432595,-0.22535 -0.432595,2.253499m161.760024,-1.362916c-5.088825,3.389263 -6.88203,5.175837 -2.9079,2.900704c3.49666,-2.004713 8.16366,-5.489524 7.3954,-5.521974c-0.285405,-0.01262 -2.30478,1.166411 -4.4875,2.62127m-32.392572,1.362916c1.918855,1.054638 3.93823,1.918178 4.4875,1.918178c0.54927,0 -0.572605,-0.863541 -2.493255,-1.918178c-1.918855,-1.05644 -3.93823,-1.919981 -4.4875,-1.919981c-0.547475,0 0.5744,0.863541 2.493255,1.919981m-207.123267,6.00873c0,3.030506 0.18668,4.269029 0.414645,2.754677c0.22976,-1.514351 0.22976,-3.9932 0,-5.509355c-0.227965,-1.514351 -0.414645,-0.275828 -0.414645,2.754677m215.100247,-2.504088c1.37138,0.787823 2.942005,1.431423 3.491275,1.431423c0.547475,0 -0.12565,-0.643599 -1.495235,-1.431423c-1.37138,-0.787823 -2.942005,-1.431423 -3.491275,-1.431423c-0.547475,0 0.12565,0.643599 1.495235,1.431423m193.712821,2.00291c0.01077,2.203021 0.2154,2.987238 0.454135,1.741504c0.238735,-1.245734 0.22976,-3.048534 -0.019745,-4.00582c-0.249505,-0.957286 -0.44516,0.061295 -0.43439,2.264316m-179.75131,-0.937456c-2.407095,0.914019 -2.85405,1.343085 -1.436,1.382747c1.129055,0.030648 2.924055,-0.605741 3.98849,-1.415197c2.27247,-1.727082 2.06784,-1.723476 -2.55249,0.03245m-148.087509,4.337535c2.38735,2.815973 15.456746,11.934532 15.456746,10.786148c0,-0.250589 -2.35145,-1.968657 -5.225245,-3.814723c-2.87559,-1.847869 -6.801255,-4.701701 -8.725496,-6.340445c-2.486075,-2.118289 -2.92226,-2.300372 -1.506005,-0.63098m168.28126,1.222298c-3.397935,2.186796 -4.49827,3.654274 -1.495235,1.997502c2.288625,-1.263762 5.871445,-4.047284 5.236015,-4.067115c-0.274635,-0.007211 -1.958345,0.923033 -3.74078,2.069614m62.812439,4.418661c-2.872,1.943418 -5.221655,3.749823 -5.221655,4.016637c0,0.266814 2.432225,-1.137566 5.404745,-3.120646l5.40654,-3.605599l7.0005,1.090694c9.728901,1.516154 12.270621,1.130355 3.128685,-0.474136c-10.281761,-1.806405 -9.874296,-1.860489 -15.718816,2.09305m95.497595,-2.733044c0,0.623769 -1.44318,2.839409 -3.204075,4.925248c-2.873795,3.398277 -2.91508,3.531684 -0.407465,1.287199c3.15561,-2.824987 5.056515,-5.893351 4.18953,-6.764103c-0.317715,-0.319095 -0.57799,-0.070309 -0.57799,0.551657m-495.335663,4.708912c0.008975,2.754677 0.202835,3.762442 0.4308,2.24088c0.22976,-1.523365 0.22258,-3.776865 -0.012565,-5.008177c-0.23694,-1.231312 -0.425415,0.014422 -0.418235,2.767297m86.80082,3.005266c0.005385,3.856188 0.184885,5.311047 0.400285,3.232419c0.217195,-2.076825 0.213605,-5.231724 -0.00718,-7.011087c-0.220785,-1.77756 -0.396695,-0.07752 -0.393105,3.778667m340.22432,-4.449309c5.05113,1.049229 9.132961,1.002356 4.98651,-0.05769c-1.646015,-0.420052 -4.338515,-0.76619 -5.982735,-0.767993c-2.51659,-0.001803 -2.356835,0.127999 0.996225,0.825682m-190.469256,5.469693c1.096745,0.895991 2.891745,2.073219 3.98849,2.614059l1.994245,0.982526l-1.994245,-1.629731c-1.096745,-0.897794 -2.891745,-2.075022 -3.98849,-2.615862l-1.994245,-0.982526l1.994245,1.631533m153.323524,0.596727c-3.39973,2.186796 -4.500065,3.654274 -1.49703,1.997502c2.288625,-1.263762 5.87324,-4.047284 5.236015,-4.067115c-0.274635,-0.007211 -1.95655,0.923033 -3.738985,2.069614m-351.642315,0.677853c-0.267455,0.434475 1.05187,0.611149 2.93303,0.391207c1.88116,-0.221744 3.42127,-0.576896 3.42127,-0.793232c0,-0.75357 -5.871445,-0.382193 -6.3543,0.402024m272.861556,0.899597c0.960325,0.252392 2.53095,0.252392 3.48948,0c0.960325,-0.252392 0.174115,-0.457911 -1.74474,-0.457911c-1.918855,0 -2.705065,0.205519 -1.74474,0.457911m-272.260231,4.317704c0,1.927192 0.20463,2.716819 0.45593,1.752321c0.2513,-0.964498 0.2513,-2.541947 0,-3.506445c-0.2513,-0.962695 -0.45593,-0.174872 -0.45593,1.754124m9.375286,1.000554c0.33746,1.377339 1.225985,3.856188 1.9745,5.509355c1.09495,2.412145 1.24214,2.511299 0.75031,0.501178c-0.335665,-1.377339 -1.22419,-3.856188 -1.972705,-5.509355c-1.09495,-2.413948 -1.24214,-2.511299 -0.752105,-0.501178m39.829257,1.002356c0.36618,1.377339 1.082385,3.180138 1.59037,4.00582c0.64261,1.043821 0.72159,0.739148 0.25848,-1.002356c-0.367975,-1.375536 -1.08418,-3.178335 -1.592165,-4.00582c-0.64261,-1.043821 -0.719795,-0.737345 -0.256685,1.002356m-86.10077,2.00291c0,1.927192 0.20463,2.716819 0.45593,1.752321c0.249505,-0.964498 0.249505,-2.541947 0,-3.504642c-0.2513,-0.964498 -0.45593,-0.176674 -0.45593,1.752321m275.500206,0.72112c0.99443,1.013173 17.607156,12.201346 20.443256,13.769781c3.73719,2.066008 -1.197265,-1.667589 -9.474011,-7.16793c-10.062771,-6.686583 -12.484226,-8.143245 -10.969246,-6.601851m122.361567,1.710857c-4.6311,3.290109 -5.282685,4.229367 -1.37138,1.979474c1.82372,-1.049229 3.785655,-2.471638 4.360055,-3.160307c1.473695,-1.768546 0.780825,-1.496323 -2.988675,1.180834m-195.159591,0.09014c1.096745,0.895991 2.891745,2.073219 3.98849,2.614059l1.99604,0.984328l-1.99604,-1.631533c-1.096745,-0.897794 -2.891745,-2.073219 -3.98849,-2.614059l-1.994245,-0.984328l1.994245,1.631533m165.290789,0.596727c-3.39973,2.186796 -4.500065,3.656077 -1.49703,1.997502c2.288625,-1.263762 5.87324,-4.047284 5.236015,-4.067115c-0.274635,-0.007211 -1.95655,0.924836 -3.738985,2.069614m77.588879,0.200111c0.80057,0.914019 20.084256,7.834966 20.543776,7.373449c0.21181,-0.21273 -3.774885,-1.871306 -8.860121,-3.686725c-12.541666,-4.476351 -12.310111,-4.402436 -11.683656,-3.686725m-356.880125,1.689223c2.959955,8.907631 10.165086,28.001079 10.455876,27.709026c0.44516,-0.447094 -9.454266,-27.892911 -10.344586,-28.675326c-0.335665,-0.293856 -0.385925,0.138816 -0.11129,0.9663m170.842725,0.724725c0.978275,1.002356 26.483432,18.14157 29.418257,19.7713c4.356465,2.417554 -1.94937,-2.175979 -13.961511,-10.169591c-14.496421,-9.648582 -17.059681,-11.240454 -15.456746,-9.601709m-220.653978,3.281095c0,1.927192 0.206425,2.716819 0.45593,1.752321c0.2513,-0.964498 0.2513,-2.541947 0,-3.504642c-0.249505,-0.964498 -0.45593,-0.176674 -0.45593,1.752321m11.371326,-1.002356c0.335665,1.377339 1.22419,3.856188 1.972705,5.509355c1.09495,2.412145 1.24214,2.511299 0.75031,0.501178c-0.335665,-1.377339 -1.22419,-3.856188 -1.972705,-5.509355c-1.09495,-2.412145 -1.24214,-2.511299 -0.75031,-0.501178m330.944169,5.128964c-9.466831,6.124109 -17.574846,12.103995 -10.472031,7.723192c13.437371,-8.289271 23.162681,-14.939798 21.690781,-14.837038c-0.138215,0.009014 -5.185755,3.210786 -11.218751,7.113846m-379.211722,-0.120788c0,1.928995 0.20463,2.716819 0.45593,1.752321c0.249505,-0.962695 0.249505,-2.540144 0,-3.504642c-0.2513,-0.964498 -0.45593,-0.174872 -0.45593,1.752321m467.963707,-0.614755c1.646015,0.75357 4.11414,1.645956 5.48552,1.983079c2.001425,0.493967 1.9027,0.344335 -0.49901,-0.75357c-1.646015,-0.75357 -4.11414,-1.644153 -5.48552,-1.983079c-2.001425,-0.492164 -1.9027,-0.344335 0.49901,0.75357m-125.150997,5.732902c-10.983606,7.023706 -12.559616,7.773671 -19.944246,9.475513c-3.42845,0.789626 -4.46955,1.29441 -2.776865,1.346691c5.340125,0.165858 32.692337,-13.679641 32.692337,-16.549698c0,-0.641797 -0.12206,-0.571487 -9.971226,5.727493m-123.156752,-3.398277c2.13246,2.165162 24.431746,16.632627 24.431746,15.850212c0,-0.265012 -5.049335,-3.784076 -11.218751,-7.818741c-12.766041,-8.350566 -14.663356,-9.502555 -13.212996,-8.031471m76.687789,1.12675c0.99084,1.6099 18.142066,12.183318 19.651661,12.113009c0.762875,-0.034253 0.4667,-0.43808 -0.65697,-0.895991c-1.125465,-0.456108 -5.997095,-3.391066 -10.823851,-6.518922c-4.82855,-3.127857 -8.50471,-5.24254 -8.17084,-4.698095m182.589205,0.546248c1.646015,0.751767 4.11414,1.644153 5.48552,1.981276c2.001425,0.493967 1.904495,0.346137 -0.49901,-0.75357c-1.646015,-0.751767 -4.11414,-1.644153 -5.48552,-1.983079c-2.001425,-0.492164 -1.9027,-0.344335 0.49901,0.755373m-426.737939,2.615862c0.36618,1.377339 1.082385,3.180138 1.592165,4.007623c0.640815,1.043821 0.719795,0.737345 0.256685,-1.002356c-0.36618,-1.377339 -1.082385,-3.180138 -1.592165,-4.00582c-0.640815,-1.043821 -0.719795,-0.739148 -0.256685,1.000554m-13.304541,3.005266c0,1.928995 0.206425,2.716819 0.45593,1.752321c0.2513,-0.962695 0.2513,-2.540144 0,-3.504642c-0.249505,-0.964498 -0.45593,-0.174872 -0.45593,1.752321m452.508756,-0.939258c2.468125,1.137566 5.605785,3.053942 6.973575,4.258212l2.48428,2.190401l-1.983475,-2.356259c-2.15759,-2.559975 -5.55014,-4.543054 -9.468626,-5.530988c-1.37138,-0.346137 -0.47388,0.301067 1.994245,1.438634m-129.390787,3.057548c-3.397935,2.186796 -4.49827,3.654274 -1.495235,1.997502c2.288625,-1.263762 5.87324,-4.047284 5.236015,-4.067115c-0.274635,-0.007211 -1.958345,0.923033 -3.74078,2.069614m-360.014196,1.887531c0,1.928995 0.20463,2.716819 0.45593,1.754124c0.2513,-0.964498 0.2513,-2.541947 0,-3.506445c-0.2513,-0.964498 -0.45593,-0.174872 -0.45593,1.752321m407.430918,1.314241c-3.67616,2.345442 -7.041785,4.660236 -7.479765,5.141584c-0.992635,1.094299 0.54209,0.236167 8.29649,-4.634997l6.097615,-3.834554l9.743261,3.542501c5.358075,1.948826 9.920966,3.362221 10.139956,3.142279c0.30515,-0.306476 -19.143676,-7.768262 -19.940656,-7.649278c-0.095135,0.014422 -3.18074,1.94522 -6.8569,4.292465m-164.341234,4.00582c0,0.232561 1.908085,1.68742 4.23979,3.230616c2.32991,1.544999 3.710265,2.166965 3.067655,1.38455c-1.236755,-1.503535 -7.307445,-5.338089 -7.307445,-4.615166m197.949021,2.078628c1.646015,0.751767 4.11414,1.644153 5.48552,1.983079c2.001425,0.492164 1.904495,0.344335 -0.49901,-0.75357c-1.646015,-0.75357 -4.11414,-1.645956 -5.48552,-1.983079c-2.001425,-0.493967 -1.9027,-0.344335 0.49901,0.75357m-344.90568,2.617665c0.33746,1.377339 1.225985,3.856188 1.9745,5.507552c1.09495,2.413948 1.24214,2.513102 0.75031,0.501178c-0.335665,-1.377339 -1.22419,-3.856188 -1.972705,-5.507552c-1.09495,-2.413948 -1.24214,-2.513102 -0.752105,-0.501178m241.178009,2.644707c-5.088825,3.38746 -6.88203,5.175837 -2.909695,2.898901c3.498455,-2.004713 8.165455,-5.487721 7.397195,-5.521974c-0.285405,-0.01262 -2.30478,1.168214 -4.4875,2.623073m-296.970202,6.870468c0.306945,3.856188 0.72877,7.198578 0.935195,7.427533c0.69287,0.769795 0.26925,-6.383712 -0.61748,-10.4328c-0.67492,-3.079181 -0.748515,-2.383301 -0.317715,3.005266m59.382193,4.506998c-0.055645,3.028703 -1.48985,12.004841 -3.186125,19.946172c-1.69807,7.941331 -2.938415,14.882108 -2.758915,15.422948c0.296175,0.892386 5.94863,-25.679074 6.99332,-32.865032c0.238735,-1.653167 0.12565,-4.132016 -0.25489,-5.509355c-0.490035,-1.779363 -0.719795,-0.910414 -0.79339,3.005266m225.299438,-3.405488c-1.25291,0.881569 -3.14843,1.373733 -4.212865,1.094299c-1.06264,-0.279434 -1.681915,-0.099154 -1.37497,0.400221c0.913655,1.483704 3.760525,0.998751 6.4261,-1.094299c2.999445,-2.358062 2.371195,-2.657326 -0.838265,-0.400221m-56.004003,1.721673c0,0.668839 45.512228,30.730517 46.503068,30.716095c0.475675,-0.007211 -9.231686,-6.67216 -21.572311,-14.813602c-26.022116,-17.166255 -24.930756,-16.470375 -24.930756,-15.902493m-229.124583,11.299946c-0.662355,3.172927 -1.03751,5.938421 -0.83288,6.14394c0.57081,0.57329 2.82533,-9.54402 2.407095,-10.804176c-0.202835,-0.611149 -0.910065,1.485507 -1.574215,4.660236m371.798371,2.902507c0,0.551657 0.640815,2.129106 1.42523,3.506445c0.78262,1.375536 1.42523,2.051586 1.42523,1.501732c0,-0.551657 -0.64261,-2.129106 -1.42523,-3.506445c-0.784415,-1.375536 -1.42523,-2.051586 -1.42523,-1.501732m-374.943212,9.096925c-0.644405,2.567186 -0.98366,4.854939 -0.755695,5.085697c0.22976,0.228956 0.942375,-1.683815 1.58678,-4.251001c0.64261,-2.567186 0.981865,-4.854939 0.7539,-5.083894c-0.227965,-0.228956 -0.942375,1.683815 -1.584985,4.249198m377.933682,-2.085839c0,0.551657 0.64261,2.129106 1.42523,3.504642c0.784415,1.377339 1.42523,2.053388 1.42523,1.503535c0,-0.551657 -0.640815,-2.129106 -1.42523,-3.506445c-0.78262,-1.377339 -1.42523,-2.053388 -1.42523,-1.501732m-81.84303,5.649973l-2.49146,2.100261l2.70686,-1.622519c3.634875,-2.175979 5.501675,-2.040769 6.291475,0.457911c0.360795,1.142975 0.87596,1.858686 1.14521,1.588266c3.128685,-3.142279 -4.08901,-5.523777 -7.652085,-2.523919m85.833315,3.364024c0,0.551657 0.640815,2.129106 1.42523,3.504642c0.78262,1.377339 1.42523,2.053388 1.42523,1.503535c0,-0.551657 -0.64261,-2.129106 -1.42523,-3.506445c-0.784415,-1.377339 -1.42523,-2.053388 -1.42523,-1.501732m-99.530961,1.218692c1.516775,0.230758 3.760525,0.22535 4.98651,-0.01262c1.225985,-0.23797 -0.01436,-0.425461 -2.755325,-0.418249c-2.74276,0.007211 -3.746165,0.201914 -2.231185,0.430869m-326.259219,11.395495c-1.218805,4.46914 -2.03553,8.305496 -1.81295,8.529044c0.22258,0.223547 1.4001,-3.250447 2.6207,-7.717784c1.218805,-4.467337 2.033735,-8.305496 1.81295,-8.529044c-0.22258,-0.221744 -1.401895,3.250447 -2.6207,7.717784m351.017655,-5.6031c0,0.549854 1.08059,3.028703 2.40171,5.507552c1.322915,2.478849 2.403505,4.056298 2.403505,3.506445c0,-0.551657 -1.08059,-3.030506 -2.403505,-5.509355c-1.32112,-2.478849 -2.40171,-4.056298 -2.40171,-3.504642m77.762994,0c0,0.549854 0.64261,2.127303 1.42523,3.504642c0.784415,1.377339 1.42523,2.053388 1.42523,1.503535c0,-0.551657 -0.640815,-2.129106 -1.42523,-3.506445c-0.78262,-1.377339 -1.42523,-2.053388 -1.42523,-1.501732m-330.084364,7.578968c-0.66056,3.37484 -1.006995,6.331431 -0.770055,6.571204c0.23694,0.23797 0.97289,-2.329217 1.635245,-5.704057c0.66056,-3.37484 1.006995,-6.333234 0.770055,-6.571204c-0.238735,-0.23797 -0.974685,2.327414 -1.635245,5.704057m333.089194,-0.567882c0,0.549854 0.859805,2.578003 1.911675,4.506998c1.050075,1.927192 1.90988,3.053942 1.90988,2.504088c0,-0.551657 -0.859805,-2.579806 -1.90988,-4.506998c-1.05187,-1.928995 -1.911675,-3.055745 -1.911675,-2.504088m-435.786535,13.102745c-0.64261,2.567186 -0.98366,4.854939 -0.7539,5.085697c0.227965,0.228956 0.942375,-1.683815 1.584985,-4.251001c0.644405,-2.567186 0.98366,-4.854939 0.7539,-5.083894c-0.227965,-0.228956 -0.94058,1.682012 -1.584985,4.249198m440.051455,-3.587571c0.7539,2.812367 6.90716,16.070153 7.282315,15.695171c0.20463,-0.207322 -1.43959,-4.160861 -3.656415,-8.786844c-2.216825,-4.625983 -3.84848,-7.735812 -3.6259,-6.908327m-76.064924,2.502285c0,0.551657 0.859805,2.579806 1.911675,4.506998c1.050075,1.928995 1.90988,3.055745 1.90988,2.504088c0,-0.549854 -0.859805,-2.578003 -1.90988,-4.506998c-1.05187,-1.927192 -1.911675,-3.053942 -1.911675,-2.504088m-264.791235,5.064063c-0.375155,2.010121 -0.482855,3.854385 -0.238735,4.099566c0.24412,0.245181 0.75031,-1.198862 1.125465,-3.208983c0.375155,-2.010121 0.482855,-3.854385 0.24053,-4.099566c-0.24412,-0.245181 -0.75031,1.198862 -1.12726,3.208983m-103.173016,10.55539c-1.218805,4.46914 -2.033735,8.307299 -1.81295,8.529044c0.22258,0.223547 1.401895,-3.250447 2.6207,-7.717784c1.218805,-4.467337 2.03553,-8.305496 1.81295,-8.529044c-0.220785,-0.221744 -1.4001,3.250447 -2.6207,7.717784m451.718956,-0.594924c0,0.549854 0.640815,2.127303 1.42523,3.504642c0.78262,1.377339 1.42523,2.053388 1.42523,1.503535c0,-0.551657 -0.64261,-2.129106 -1.42523,-3.506445c-0.784415,-1.377339 -1.42523,-2.053388 -1.42523,-1.501732m-352.02465,6.576612c-0.66056,3.37484 -1.006995,6.333234 -0.770055,6.571204c0.238735,0.23797 0.97289,-2.327414 1.635245,-5.704057c0.66056,-3.37484 1.006995,-6.331431 0.770055,-6.571204c-0.238735,-0.23797 -0.97289,2.329217 -1.635245,5.704057m276.212821,-4.795446c-0.026925,0.429066 1.297785,3.457769 2.9438,6.731653c1.64422,3.273884 2.99047,6.190813 2.99047,6.481064c0,0.292053 -10.784361,0.530023 -23.965046,0.530023c-27.553252,0 -34.891212,1.977671 -34.866082,9.399796c0.001795,0.612952 0.90827,-0.374982 2.015785,-2.199415c3.46076,-5.700451 6.097615,-6.199827 32.791062,-6.199827c27.319902,0 26.285982,0.418249 21.615391,-8.721943c-1.911675,-3.740809 -3.498455,-6.450416 -3.52538,-6.02135m78.8023,5.229921c0,0.549854 0.64261,2.127303 1.42523,3.504642c0.784415,1.377339 1.42523,2.053388 1.42523,1.501732c0,-0.549854 -0.640815,-2.127303 -1.42523,-3.504642c-0.78262,-1.377339 -1.42523,-2.053388 -1.42523,-1.501732m-458.708686,8.094569c-0.644405,2.567186 -0.98366,4.854939 -0.755695,5.085697c0.22976,0.228956 0.942375,-1.683815 1.58678,-4.251001c0.64261,-2.567186 0.981865,-4.854939 0.7539,-5.083894c-0.227965,-0.228956 -0.942375,1.683815 -1.584985,4.249198m462.156882,-0.383996c0.576195,1.517957 3.078425,1.73249 23.412186,2.00291c22.342366,0.295659 22.830606,0.34794 26.090326,2.745663c2.26888,1.671195 2.848665,1.860489 1.825515,0.596727c-3.18433,-3.937314 -7.013065,-4.543054 -28.687692,-4.543054c-15.284426,0 -21.105611,-0.331715 -22.030036,-1.252946c-1.006995,-1.002356 -1.12726,-0.914019 -0.6103,0.4507m-398.791583,2.929549c-1.96373,9.861312 0.138215,17.515998 6.212495,22.625131c4.094395,3.443347 4.647255,2.680763 0.626455,-0.863541c-5.709895,-5.035219 -6.80664,-8.058513 -6.190955,-17.077918c0.56722,-8.310905 0.364385,-9.772975 -0.647995,-4.683673m-65.171069,7.887247c0,2.478849 0.19386,3.493825 0.4308,2.253499c0.238735,-1.238523 0.238735,-3.266672 0,-4.506998c-0.23694,-1.238523 -0.4308,-0.22535 -0.4308,2.253499m328.064989,4.506998c0.01077,2.204824 0.2154,2.987238 0.454135,1.741504c0.238735,-1.245734 0.22976,-3.048534 -0.019745,-4.00582c-0.249505,-0.957286 -0.44516,0.061295 -0.43439,2.264316m-327.300319,0.802246c-0.62466,12.515033 22.710341,17.708898 31.868432,7.092213l2.48787,-2.886282l-2.98688,2.702396c-10.109441,9.13839 -23.588096,7.005678 -29.748537,-4.705306c-0.86878,-1.653167 -1.599345,-2.644707 -1.620885,-2.203021m328.052424,4.05089c-0.01436,1.941615 4.18235,6.531542 7.354115,8.044091c3.064065,1.460267 11.985216,1.626125 87.542155,1.626125c92.729705,0 88.47017,0.281237 92.46225,-6.091659c1.35343,-2.159754 1.229575,-2.121895 -1.14162,0.342532c-4.61674,4.800855 -3.57564,4.746771 -91.81605,4.746771c-93.124605,0 -87.919105,0.367771 -92.424555,-6.509908c-1.08418,-1.651364 -1.972705,-2.623073 -1.976295,-2.157951m-235.771469,5.473299c-3.218435,2.21564 -5.01523,2.695185 -10.127391,2.695185c-3.41768,0 -5.695535,0.329912 -5.063695,0.735542c3.52538,2.251696 15.331096,-0.782415 18.644666,-4.791841c1.64063,-1.986685 1.093155,-1.770349 -3.45358,1.361113" id="svg_5"/>
  </g>
 </g>
</svg>